<svg width="35" height="35" viewBox="0 0 35 35" fill="none" xmlns="http://www.w3.org/2000/svg">
<rect x="0.869385" width="34.1306" height="34.1306" rx="13.1271" fill="#FFDECF"/>
<path d="M25.2285 26.7739C24.8668 25.5615 25.2902 24.2626 25.7629 23.0873C26.5635 21.2352 27.0004 19.2456 27.0497 17.2275C27.0497 13.5862 25.7917 9.82945 23.0907 7.30984C21.7159 6.05919 19.9467 5.33274 18.0922 5.25737C16.2377 5.182 14.4158 5.76249 12.9446 6.89747C9.73378 9.37171 8.70186 13.5408 8.74708 17.4254V19.2893M22.0177 10.8893C20.4062 8.82739 18.1903 8.00264 15.9169 9.00884C14.1326 9.80059 12.9404 11.5408 12.3319 13.3429C11.5632 15.6109 11.9208 17.9903 11.6701 20.3326C11.5344 21.6564 11.0616 23.0254 10.0256 23.8419M23.173 12.9882C23.6813 14.3359 23.9377 15.766 23.9294 17.2068C23.9207 19.0279 23.4989 20.823 22.6961 22.4564C22.2397 23.3924 21.2777 25.0419 20.0033 24.3945C18.9632 23.8667 19.1358 22.6461 19.4318 21.7141C19.995 19.945 20.8173 18.4151 20.8995 16.5099C20.9776 14.7243 20.4185 12.848 18.6508 12.0975C18.1476 11.8808 17.5869 11.8381 17.0569 11.9762C16.527 12.1143 16.0579 12.4254 15.7236 12.8604C14.223 14.9223 15.07 17.2068 14.3752 19.479M17.1584 19.8419C16.476 21.7553 15.6949 24.0358 16.3362 26.0646C17.1214 28.5389 19.9457 29.3884 22.215 28.5884M13.9723 22.2378C13.7593 23.023 13.4543 23.7802 13.0637 24.4935C12.6716 25.2096 12.1061 25.8152 11.4193 26.2543M17.7956 17.1738C17.9543 16.475 17.9987 15.755 17.9272 15.0419C18.0166 15.7545 17.972 16.4777 17.7956 17.1738Z" stroke="#E95322" stroke-width="1.42515" stroke-linecap="round" stroke-linejoin="round"/>
</svg>
