<svg width="35" height="35" viewBox="0 0 35 35" fill="none" xmlns="http://www.w3.org/2000/svg">
<rect x="0.31958" width="34.1306" height="34.1306" rx="13.1271" fill="#FFDECF"/>
<path d="M19.4803 27.5758C19.4803 26.0536 19.4803 23.1108 19.4803 21.3192H22.2796C22.4142 21.3192 22.5433 21.2657 22.6384 21.1706C22.7336 21.0754 22.787 20.9464 22.787 20.8118V17.7115C22.787 17.5769 22.7336 17.4479 22.6384 17.3527C22.5433 17.2576 22.4142 17.2041 22.2796 17.2041H19.4803C19.4803 15.9934 19.4803 16.1369 19.4803 15.381C19.4812 15.0541 19.6118 14.7408 19.8433 14.5099C20.0749 14.279 20.3885 14.1493 20.7155 14.1493H22.7695V10.9476C22.7686 10.7078 22.6727 10.4782 22.5029 10.309C22.333 10.1398 22.103 10.0448 21.8633 10.0448H19.2983C18.7593 10.0448 18.2256 10.1509 17.7276 10.3572C17.2296 10.5635 16.7771 10.8658 16.396 11.247C16.0148 11.6281 15.7125 12.0806 15.5062 12.5786C15.3 13.0766 15.1938 13.6103 15.1938 14.1493C15.1938 14.1493 15.1483 14.7442 15.1203 17.2041H12.4119C12.2616 17.2041 12.1174 17.2639 12.0111 17.3702C11.9048 17.4765 11.845 17.6207 11.845 17.771V20.7523C11.8446 20.8269 11.8589 20.9008 11.8872 20.9698C11.9156 21.0388 11.9573 21.1015 12.01 21.1542C12.0627 21.2069 12.1254 21.2487 12.1944 21.277C12.2634 21.3053 12.3373 21.3197 12.4119 21.3192H15.0888C15.0888 23.1213 15.0888 25.7107 15.1378 27.3063M15.1448 27.2748C12.7691 26.6294 10.6723 25.219 9.17888 23.2619C7.68544 21.3048 6.87859 18.9101 6.88317 16.4483C6.88317 13.4786 8.06289 10.6304 10.1628 8.53051C12.2627 6.43058 15.1109 5.25085 18.0806 5.25085C21.0504 5.25085 23.8985 6.43058 25.9984 8.53051C28.0983 10.6304 29.2781 13.4786 29.2781 16.4483C29.2798 19.1769 28.2853 21.8123 26.4811 23.8593C24.677 25.9064 22.1875 27.2242 19.4803 27.5653" stroke="#E95322" stroke-width="1.42515" stroke-linecap="round" stroke-linejoin="round"/>
</svg>
