<svg width="44" height="44" viewBox="0 0 44 44" fill="none" xmlns="http://www.w3.org/2000/svg">
<g filter="url(#filter0_d_195_177)">
<circle cx="22" cy="18" r="18" fill="#F5CB58"/>
</g>
<g clip-path="url(#clip0_195_177)">
<rect width="20" height="20" transform="translate(12 8)" fill="#F5CB58"/>
<path d="M26.1666 8.83333L29.5 12.1667L26.1666 15.5" stroke="white" stroke-width="2" stroke-linecap="round" stroke-linejoin="round"/>
<path d="M14.5 17.1667V15.5C14.5 14.616 14.8512 13.7681 15.4763 13.143C16.1014 12.5179 16.9493 12.1667 17.8333 12.1667H29.5" stroke="white" stroke-width="2" stroke-linecap="round" stroke-linejoin="round"/>
<path d="M17.8333 27.1667L14.5 23.8333L17.8333 20.5" stroke="white" stroke-width="2" stroke-linecap="round" stroke-linejoin="round"/>
<path d="M29.5 18.8333V20.5C29.5 21.384 29.1488 22.2319 28.5237 22.857C27.8986 23.4821 27.0507 23.8333 26.1667 23.8333H14.5" stroke="white" stroke-width="2" stroke-linecap="round" stroke-linejoin="round"/>
</g>
<defs>
<filter id="filter0_d_195_177" x="0" y="0" width="44" height="44" filterUnits="userSpaceOnUse" color-interpolation-filters="sRGB">
<feFlood flood-opacity="0" result="BackgroundImageFix"/>
<feColorMatrix in="SourceAlpha" type="matrix" values="0 0 0 0 0 0 0 0 0 0 0 0 0 0 0 0 0 0 127 0" result="hardAlpha"/>
<feOffset dy="4"/>
<feGaussianBlur stdDeviation="2"/>
<feColorMatrix type="matrix" values="0 0 0 0 0 0 0 0 0 0 0 0 0 0 0 0 0 0 0.15 0"/>
<feBlend mode="normal" in2="BackgroundImageFix" result="effect1_dropShadow_195_177"/>
<feBlend mode="normal" in="SourceGraphic" in2="effect1_dropShadow_195_177" result="shape"/>
</filter>
<clipPath id="clip0_195_177">
<rect width="20" height="20" fill="white" transform="translate(12 8)"/>
</clipPath>
</defs>
</svg>
